<?xml version="1.0" standalone="no"?>
<!DOCTYPE svg PUBLIC "-//W3C//DTD SVG 20010904//EN"
 "http://www.w3.org/TR/2001/REC-SVG-20010904/DTD/svg10.dtd">
<svg version="1.0" xmlns="http://www.w3.org/2000/svg"
 width="111.000000pt" height="119.000000pt" viewBox="0 0 111.000000 119.000000"
 preserveAspectRatio="xMidYMid meet">

<g transform="translate(0.000000,119.000000) scale(0.100000,-0.100000)"
fill="#000000" stroke="">
<path d="M380 1167 c-191 -65 -324 -217 -366 -417 -19 -88 -12 -261 12 -350
54 -192 215 -340 419 -385 85 -19 127 -17 239 13 100 28 176 71 247 141 101
102 151 226 165 409 8 114 -7 197 -57 300 -47 97 -132 190 -220 240 -125 71
-314 92 -439 49z m262 -52 c26 -3 80 -22 119 -42 233 -116 328 -398 213 -631
-173 -352 -675 -352 -848 0 -116 234 -19 516 216 632 71 36 169 57 228 50 14
-2 46 -6 72 -9z"/>
<path d="M560 790 l0 -60 35 0 35 0 0 60 0 60 -35 0 -35 0 0 -60z"/>
<path d="M760 790 l0 -60 35 0 35 0 0 60 0 60 -35 0 -35 0 0 -60z"/>
<path d="M374 649 c21 -133 134 -229 271 -229 137 0 250 96 271 229 l7 41 -37
0 c-30 0 -36 -4 -36 -20 0 -30 -27 -91 -53 -118 -78 -84 -226 -84 -304 0 -26
27 -53 88 -53 118 0 16 -6 20 -36 20 l-37 0 7 -41z"/>
</g>
</svg>
